<?xml version="1.0" encoding="utf-8"?>
<svg version="1.1" xmlns="http://www.w3.org/2000/svg" x="0px" y="0px" width="2480px" height="2480px" viewBox="0 0 12000 12000" preserveAspectRatio="xMidYMid meet">
<g id="layer102">
 <path fill="#000000" fill-rule="evenodd" d="M1595 9615 c180 -49 308 -182 361 -376 14 -49 18 -102 19 -224 0 -185 -11 -242 -76 -373 -61 -126 -140 -221 -342 -415 -276 -265 -336 -355 -345 -522 -9 -171 32 -251 139 -274 96 -21 184 12 221 82 18 35 23 62 26 160 l4 117 191 0 190 0 -6 -127 c-10 -216 -59 -353 -163 -457 -98 -98 -240 -146 -427 -146 -297 1 -480 135 -552 405 -26 96 -31 294 -11 395 44 216 111 317 415 620 305 304 340 361 340 550 1 173 -56 240 -203 240 -82 0 -141 -30 -170 -85 -18 -35 -21 -61 -24 -197 l-3 -158 -191 0 -190 0 4 178 c5 147 9 189 28 247 33 104 66 162 127 226 78 82 179 130 318 153 57 9 260 -3 320 -19z m1408 -8 c183 -59 302 -191 354 -393 17 -63 18 -136 18 -864 0 -731 -1 -801 -18 -865 -53 -209 -177 -342 -372 -401 -86 -27 -334 -27 -420 0 -195 59 -319 192 -372 401 -17 64 -18 134 -18 865 0 728 1 801 18 864 60 234 215 378 447 416 97 16 276 4 363 -23z m2609 19 c103 -22 175 -61 249 -135 73 -74 107 -136 141 -256 l23 -80 3 -1037 3 -1038 -190 0 -191 0 -2 1033 c-3 1138 1 1057 -65 1118 -78 72 -226 63 -295 -19 -14 -17 -31 -54 -37 -82 -8 -35 -11 -367 -11 -1050 l0 -1000 -200 0 -201 0 3 1038 c3 1033 4 1037 25 1115 61 216 193 350 387 392 81 18 275 18 358 1z m3443 -12 c183 -49 316 -186 372 -384 17 -61 18 -120 18 -880 0 -760 -1 -819 -18 -880 -76 -266 -275 -409 -574 -410 -313 0 -513 142 -583 416 -19 74 -20 113 -20 868 0 874 0 868 64 1001 73 154 197 245 381 281 87 17 276 11 360 -12z m-4375 -184 l0 -180 -325 0 -325 0 0 -1085 0 -1085 -200 0 -200 0 0 1265 0 1265 525 0 525 0 0 -180z m2320 -900 l0 -1080 210 0 210 0 0 -185 0 -185 -615 0 -615 0 0 185 0 185 205 0 205 0 0 1080 0 1080 200 0 200 0 0 -1080z m990 -185 l0 -1265 -195 0 -195 0 0 1265 0 1265 195 0 195 0 0 -1265z m2072 364 l3 -900 59 218 c32 120 90 331 127 468 82 303 273 1013 289 1073 l11 42 204 0 205 0 0 -1265 0 -1265 -175 0 -175 0 -2 753 -3 752 -112 -415 c-62 -228 -151 -559 -198 -735 -47 -176 -88 -328 -91 -337 -5 -17 -26 -18 -255 -18 l-249 0 0 1265 0 1265 180 0 180 0 2 -901z m-257 -2200 c676 -58 1065 -369 1182 -945 17 -82 18 -160 18 -974 l0 -885 -664 -3 c-482 -1 -668 1 -677 9 -19 16 -21 698 -2 717 9 9 71 12 216 12 l203 0 -3 508 c-3 494 -4 509 -26 574 -57 170 -222 256 -472 245 -233 -10 -359 -89 -413 -261 l-22 -71 0 -1430 c0 -1100 3 -1442 12 -1482 51 -214 208 -311 483 -300 231 9 361 90 417 262 13 41 18 114 22 390 l6 340 460 0 460 0 0 -340 c0 -291 -3 -355 -19 -440 -46 -244 -131 -418 -280 -573 -238 -247 -549 -361 -1031 -379 -706 -25 -1184 199 -1397 654 -49 103 -94 277 -108 413 -14 145 -14 2764 1 2902 74 693 552 1058 1394 1067 66 0 174 -4 240 -10z m-7028 -72 c577 -93 894 -359 1011 -850 l27 -112 0 -1475 0 -1475 -27 -111 c-76 -318 -224 -528 -474 -675 -147 -86 -302 -137 -529 -176 -101 -17 -181 -18 -1000 -18 l-890 0 -3 2445 c-1 1345 0 2451 3 2458 4 11 169 12 892 9 764 -3 902 -6 990 -20z m4581 13 c10 0 12 -83 10 -397 l-3 -398 -1528 0 -1528 0 1 394 c0 216 2 396 4 400 3 4 2504 5 3044 1z m-1238 -1336 c638 -107 1164 -575 1370 -1220 169 -527 85 -1130 -223 -1592 -271 -407 -690 -681 -1158 -757 -124 -20 -380 -20 -507 1 -419 67 -802 294 -1076 638 -47 59 -55 87 -13 48 57 -53 167 -89 362 -118 162 -24 234 -16 380 41 156 61 174 71 188 103 17 38 73 126 88 139 8 6 41 19 74 29 54 17 90 19 340 16 154 -1 304 0 333 3 67 8 75 25 57 121 -7 38 -15 125 -19 194 -7 154 -29 224 -99 323 -49 68 -58 75 -162 128 -94 49 -114 63 -135 99 -44 75 -64 84 -193 85 -142 0 -181 17 -287 124 -86 87 -119 144 -183 321 -89 244 -90 246 -82 337 7 81 8 85 66 165 32 46 120 155 195 243 128 149 142 170 205 300 54 112 79 152 125 199 l57 58 106 -7 c58 -3 144 -13 191 -21z
M2735 9270 c-60 -8 -107 -40 -135 -91 l-25 -44 -3 -754 c-2 -529 1 -771 9 -809 15 -75 66 -126 141 -141 123 -26 225 32 247 141 8 38 11 280 9 809 l-3 754 -25 44 c-40 71 -118 104 -215 91z
M8805 9270 c-61 -9 -110 -44 -137 -98 l-23 -47 0 -775 0 -776 26 -49 c29 -57 77 -89 146 -100 59 -9 141 16 176 53 57 60 57 57 57 876 -1 681 -2 756 -18 800 -30 87 -117 131 -227 116z
M1870 4001 l0 -1721 313 0 c249 0 325 3 372 15 129 34 215 107 257 218 l23 62 3 1389 c1 912 -1 1408 -8 1445 -5 31 -25 85 -42 121 -39 76 -100 127 -193 162 -57 21 -79 22 -392 26 l-333 3 0 -1720z"/>
</g>
</svg>
